<svg version="1.1" id="Layer_1" xmlns="http://www.w3.org/2000/svg" xmlns:xlink="http://www.w3.org/1999/xlink" x="0px" y="0px"
	 width="100%" viewBox="0 0 238 69" enable-background="new 0 0 238 69" xml:space="preserve">
<path fill="#2B2E3E" opacity="1.000000" stroke="none" 
	d="
M160.000000,70.000000 
	C106.666672,70.000000 53.833347,70.000000 1.000014,70.000000 
	C1.000010,47.000008 1.000010,24.000019 1.000005,1.000020 
	C80.333313,1.000014 159.666626,1.000014 238.999954,1.000007 
	C238.999969,23.999979 238.999969,46.999958 238.999985,69.999969 
	C212.833328,70.000000 186.666672,70.000000 160.000000,70.000000 
M60.311726,14.714520 
	C58.812580,13.346597 57.313431,11.978674 54.655312,9.553226 
	C54.822514,12.738271 54.911545,14.434273 54.208340,16.084480 
	C53.398266,15.933105 52.529106,15.921942 51.787010,15.609241 
	C41.281384,11.182448 23.143406,20.571747 24.433573,34.326035 
	C20.659616,38.450878 20.771837,39.974525 25.552500,44.580608 
	C27.490553,51.739052 31.644756,56.951946 39.345699,57.512661 
	C44.740555,57.905464 50.230278,56.865845 55.684731,56.630051 
	C58.026733,56.528805 60.462357,56.522873 62.718460,57.054733 
	C65.256973,57.653172 67.591660,58.696262 69.562607,55.246460 
	C69.731659,55.173866 69.900703,55.101273 70.615646,54.623375 
	C70.842903,53.551250 71.070160,52.479130 71.187889,50.625610 
	C71.202660,47.119701 71.217430,43.613789 71.488846,39.977455 
	C71.570671,39.847607 71.751678,39.670055 71.716331,39.596569 
	C71.594193,39.342632 71.396683,39.124954 71.176064,38.297577 
	C71.191124,37.899448 71.206184,37.501324 71.836319,36.984573 
	C74.899895,36.082214 76.764641,36.899632 77.178047,40.365166 
	C77.291862,41.319263 78.212837,42.177074 78.974922,43.521175 
	C78.974922,43.521175 79.195091,43.959015 78.906860,44.570168 
	C78.810150,45.009911 78.713440,45.449654 78.074440,46.363865 
	C77.718407,47.772137 77.085930,49.174999 77.058250,50.589699 
	C76.975655,54.811394 78.681938,57.460690 83.409904,57.540066 
	C88.244087,57.621223 88.682533,54.283398 88.780998,50.865036 
	C88.914444,46.232121 89.002380,41.565189 88.601974,36.956974 
	C87.935745,29.289419 85.057579,25.991381 77.581688,24.291430 
	C74.427498,23.574196 73.475342,21.947287 72.837914,18.948200 
	C72.250343,16.183714 70.348640,13.698534 68.261650,11.111547 
	C65.808212,12.407013 63.354778,13.702477 60.311726,14.714520 
M101.633270,25.506720 
	C99.365570,26.043560 95.160408,26.549530 95.151276,27.122358 
	C95.100166,30.330589 96.062012,33.554962 96.677933,36.773823 
	C97.567543,37.167915 97.166824,37.739937 96.617653,38.009426 
	C91.661079,40.441715 90.242912,44.537441 91.300316,49.627621 
	C92.258797,54.241562 96.584694,57.606419 101.881149,57.869480 
	C105.355110,58.042027 108.871490,58.113979 112.321655,57.764622 
	C114.903618,57.503174 117.862030,56.944408 117.127136,52.075481 
	C117.095444,46.049911 117.063759,40.024338 117.246429,33.438713 
	C116.027748,27.526785 114.006790,25.944336 106.745995,25.785065 
	C105.334175,25.788826 103.922356,25.792589 101.633270,25.506720 
M145.699234,51.962669 
	C143.251129,50.223042 140.443451,48.812950 138.459427,46.648022 
	C136.599228,44.618191 135.230804,41.894737 134.496613,39.241154 
	C134.305191,38.549309 137.134949,36.356571 138.840317,35.945786 
	C142.206741,35.134876 143.736374,33.289852 143.669815,30.039835 
	C143.601776,26.716951 141.911682,25.002182 138.443451,24.602600 
	C137.167755,24.455627 135.444092,23.087181 134.988724,21.875900 
	C133.550110,18.049124 130.881241,16.740088 127.178474,17.368359 
	C123.093094,18.061552 122.069740,21.164078 122.060638,24.789064 
	C122.043533,31.601545 122.002502,38.414948 122.089684,45.226456 
	C122.192368,53.249729 125.828674,57.508495 133.773132,57.616043 
	C137.691666,57.669090 141.634903,55.899113 146.507401,55.001907 
	C152.267822,56.058949 156.349747,54.266903 158.526886,48.475624 
	C159.298187,46.423950 160.961502,44.707626 162.696411,42.125587 
	C165.093338,46.083809 167.052933,49.321503 169.014191,52.558197 
	C171.812775,57.176697 175.938889,54.260395 180.826645,55.052711 
	C176.812119,48.913612 173.622910,43.703941 170.071030,38.754524 
	C168.454407,36.501816 168.309433,34.919601 169.957504,32.630863 
	C173.213913,28.108557 176.139069,23.347715 179.144760,18.771427 
	C168.712997,14.235042 167.555634,23.792145 162.943619,28.886938 
	C160.706772,25.439142 159.334381,21.619881 156.620163,19.641760 
	C154.137665,17.832499 150.204163,18.014174 146.910080,17.318493 
	C146.697250,17.809401 146.484421,18.300308 146.271591,18.791216 
	C149.390640,23.447199 152.712433,27.986361 155.503723,32.831181 
	C156.328613,34.262924 156.361176,36.964474 155.542114,38.382481 
	C152.722000,43.264751 149.364517,47.836624 145.699234,51.962669 
M199.594467,55.489967 
	C208.517426,52.038788 212.181854,42.723610 208.088394,33.872322 
	C205.773117,28.866001 201.755630,26.276566 196.335098,26.047781 
	C190.723831,25.810942 186.210754,28.055363 183.623917,33.132973 
	C180.702133,38.868103 180.885834,44.757912 184.404175,50.182384 
	C187.775391,55.380028 192.956573,56.620468 199.594467,55.489967 
z"/>
<path fill="#A2A7B7" opacity="1.000000" stroke="none" 
	d="
M146.211761,52.526749 
	C149.364517,47.836624 152.722000,43.264751 155.542114,38.382481 
	C156.361176,36.964474 156.328613,34.262924 155.503723,32.831181 
	C152.712433,27.986361 149.390640,23.447199 146.271591,18.791216 
	C146.484421,18.300308 146.697250,17.809401 146.910080,17.318493 
	C150.204163,18.014174 154.137665,17.832499 156.620163,19.641760 
	C159.334381,21.619881 160.706772,25.439142 162.943619,28.886938 
	C167.555634,23.792145 168.712997,14.235042 179.144760,18.771427 
	C176.139069,23.347715 173.213913,28.108557 169.957504,32.630863 
	C168.309433,34.919601 168.454407,36.501816 170.071030,38.754524 
	C173.622910,43.703941 176.812119,48.913612 180.826645,55.052711 
	C175.938889,54.260395 171.812775,57.176697 169.014191,52.558197 
	C167.052933,49.321503 165.093338,46.083809 162.696411,42.125587 
	C160.961502,44.707626 159.298187,46.423950 158.526886,48.475624 
	C156.349747,54.266903 152.267822,56.058949 146.070557,54.660965 
	C145.826385,53.722267 146.019073,53.124508 146.211761,52.526749 
z"/>
<path fill="#A2A7B7" opacity="1.000000" stroke="none" 
	d="
M199.205566,55.619232 
	C192.956573,56.620468 187.775391,55.380028 184.404175,50.182384 
	C180.885834,44.757912 180.702133,38.868103 183.623917,33.132973 
	C186.210754,28.055363 190.723831,25.810942 196.335098,26.047781 
	C201.755630,26.276566 205.773117,28.866001 208.088394,33.872322 
	C212.181854,42.723610 208.517426,52.038788 199.205566,55.619232 
M201.247040,41.419125 
	C200.832031,34.748417 197.832413,31.424841 193.719376,33.369823 
	C189.421844,35.402050 189.310959,39.674210 190.324448,43.315250 
	C190.937607,45.518066 193.443985,48.406342 195.476578,48.748589 
	C199.675735,49.455643 200.864944,45.877632 201.247040,41.419125 
z"/>
<path fill="#3D2065" opacity="1.000000" stroke="none" 
	d="
M69.066040,55.489326 
	C67.591660,58.696262 65.256973,57.653172 62.718460,57.054733 
	C60.462357,56.522873 58.026733,56.528805 55.684731,56.630051 
	C50.230278,56.865845 44.740555,57.905464 39.345699,57.512661 
	C31.644756,56.951946 27.490553,51.739052 25.347254,43.840187 
	C25.094950,40.066071 25.047890,37.032372 25.000832,33.998676 
	C23.143406,20.571747 41.281384,11.182448 51.787010,15.609241 
	C52.529106,15.921942 53.398266,15.933105 54.886864,16.302586 
	C57.780888,17.373203 59.996380,18.225716 62.327217,19.375584 
	C62.361012,20.082737 62.279465,20.492537 61.902557,20.956451 
	C60.921497,21.244190 60.235802,21.477816 58.396416,22.104517 
	C60.481590,22.670111 61.383923,22.914864 62.463875,23.515421 
	C62.627678,26.241533 62.613861,28.611839 62.327930,30.982872 
	C61.692627,30.986641 61.329433,30.989685 60.840866,30.683254 
	C59.395123,28.966150 58.199955,26.538858 56.728916,26.358227 
	C53.429607,25.953094 49.994061,26.861141 46.612404,26.876024 
	C41.329803,26.899275 38.993740,28.676014 38.087032,33.866600 
	C36.684402,41.896114 40.533531,46.189411 48.590733,46.173275 
	C51.873505,46.166706 55.145496,47.302769 58.450935,47.586643 
	C59.296917,47.659290 60.251499,46.467491 61.286125,45.650677 
	C61.804489,44.713665 62.192921,43.982594 62.674198,43.628960 
	C62.925003,46.638474 63.082962,49.270546 63.259739,52.269505 
	C65.207718,53.587372 67.136879,54.538349 69.066040,55.489326 
M44.675747,17.212402 
	C36.664852,17.888758 30.555073,21.383110 28.176041,29.414925 
	C25.838810,37.305611 26.035709,45.192574 32.426628,51.232574 
	C38.316254,56.798805 45.778530,56.617313 53.097900,54.608364 
	C54.513496,54.219826 55.441162,52.053566 56.593903,50.707352 
	C55.025928,49.861351 53.509697,48.884884 51.864914,48.232544 
	C51.192120,47.965706 50.244198,48.430439 49.416416,48.510258 
	C44.567364,48.977863 40.004566,48.671471 37.243389,43.779827 
	C34.353359,38.659904 34.480167,33.477436 37.645710,28.645542 
	C40.612843,24.116507 45.196629,23.679304 50.092739,24.795742 
	C50.741764,24.943735 51.563190,25.405392 52.011238,25.167931 
	C53.455872,24.402290 55.289951,23.636560 55.920578,22.353254 
	C56.282749,21.616236 54.875786,19.124130 53.796650,18.740622 
	C51.187023,17.813202 48.302502,17.659283 44.675747,17.212402 
z"/>
<path fill="#7208D4" opacity="1.000000" stroke="none" 
	d="
M117.032074,33.998768 
	C117.063759,40.024338 117.095444,46.049911 116.790756,52.736958 
	C110.640739,53.866009 104.794685,54.914646 99.025085,54.592793 
	C95.302826,54.385151 93.280090,50.943760 93.222939,46.999485 
	C93.164764,42.984119 95.188812,40.433643 99.047073,39.408909 
	C100.642967,38.985046 102.363335,38.955933 103.897583,38.393806 
	C105.572548,37.780132 107.097542,36.757114 108.687912,35.912521 
	C106.934273,34.750973 105.295006,33.328236 103.396744,32.496929 
	C101.240555,31.552664 97.145241,31.551647 96.870224,30.418173 
	C95.846786,26.200239 100.674896,27.546455 102.510536,25.796350 
	C103.922356,25.792589 105.334175,25.788826 107.343643,26.002522 
	C110.971550,28.812910 114.001816,31.405840 117.032074,33.998768 
M101.298203,45.812847 
	C101.231644,50.077309 104.246712,50.205624 107.012199,49.464203 
	C107.984009,49.203663 108.372330,46.766731 109.027084,45.323570 
	C106.887245,44.912296 104.753906,44.456276 102.599800,44.143097 
	C102.311722,44.101212 101.918594,44.781841 101.298203,45.812847 
z"/>
<path fill="#3C2063" opacity="1.000000" stroke="none" 
	d="
M145.955505,52.244705 
	C146.019073,53.124508 145.826385,53.722267 145.600342,54.637032 
	C141.634903,55.899113 137.691666,57.669090 133.773132,57.616043 
	C125.828674,57.508495 122.192368,53.249729 122.089684,45.226456 
	C122.002502,38.414948 122.043533,31.601545 122.060638,24.789064 
	C122.069740,21.164078 123.093094,18.061552 127.178474,17.368359 
	C130.881241,16.740088 133.550110,18.049124 134.988724,21.875900 
	C135.444092,23.087181 137.167755,24.455627 138.443451,24.602600 
	C141.911682,25.002182 143.601776,26.716951 143.669815,30.039835 
	C143.736374,33.289852 142.206741,35.134876 138.840317,35.945786 
	C137.134949,36.356571 134.305191,38.549309 134.496613,39.241154 
	C135.230804,41.894737 136.599228,44.618191 138.459427,46.648022 
	C140.443451,48.812950 143.251129,50.223042 145.955505,52.244705 
M134.013550,34.319946 
	C134.652222,34.143574 135.344513,34.070469 135.919678,33.771782 
	C137.762787,32.814613 140.863953,32.034466 141.128036,30.715265 
	C141.839310,27.162106 138.508728,27.592876 136.143021,26.903276 
	C134.586838,26.449659 133.382736,24.715475 132.077286,23.494528 
	C130.713898,22.219398 129.418015,20.872112 128.092621,19.556377 
	C126.775566,21.166599 124.415581,22.719528 124.323433,24.397036 
	C123.940590,31.366182 123.971359,38.388081 124.362717,45.361866 
	C124.817345,53.462868 130.085175,57.298981 138.052017,55.514954 
	C139.459320,55.199814 140.534332,53.400776 141.762802,52.286995 
	C140.541519,51.250614 139.399658,50.096447 138.079605,49.206562 
	C136.281387,47.994324 132.937103,47.187153 132.743851,45.847378 
	C132.227249,42.266228 133.038254,38.493568 134.013550,34.319946 
z"/>
<path fill="#451B76" opacity="1.000000" stroke="none" 
	d="
M102.071899,25.651535 
	C100.674896,27.546455 95.846786,26.200239 96.870224,30.418173 
	C97.145241,31.551647 101.240555,31.552664 103.396744,32.496929 
	C105.295006,33.328236 106.934273,34.750973 108.687912,35.912521 
	C107.097542,36.757114 105.572548,37.780132 103.897583,38.393806 
	C102.363335,38.955933 100.642967,38.985046 99.047073,39.408909 
	C95.188812,40.433643 93.164764,42.984119 93.222939,46.999485 
	C93.280090,50.943760 95.302826,54.385151 99.025085,54.592793 
	C104.794685,54.914646 110.640739,53.866009 116.782059,53.206001 
	C117.862030,56.944408 114.903618,57.503174 112.321655,57.764622 
	C108.871490,58.113979 105.355110,58.042027 101.881149,57.869480 
	C96.584694,57.606419 92.258797,54.241562 91.300316,49.627621 
	C90.242912,44.537441 91.661079,40.441715 96.617653,38.009426 
	C97.166824,37.739937 97.567543,37.167915 96.677933,36.773823 
	C96.062012,33.554962 95.100166,30.330589 95.151276,27.122358 
	C95.160408,26.549530 99.365570,26.043560 102.071899,25.651535 
M102.814392,35.064564 
	C102.918503,34.993507 103.022614,34.922455 103.126724,34.851395 
	C103.025551,34.870667 102.924385,34.889938 102.814392,35.064564 
z"/>
<path fill="#3D1F68" opacity="1.000000" stroke="none" 
	d="
M69.025795,11.090323 
	C70.348640,13.698534 72.250343,16.183714 72.837914,18.948200 
	C73.475342,21.947287 74.427498,23.574196 77.581688,24.291430 
	C85.057579,25.991381 87.935745,29.289419 88.601974,36.956974 
	C89.002380,41.565189 88.914444,46.232121 88.780998,50.865036 
	C88.682533,54.283398 88.244087,57.621223 83.409904,57.540066 
	C78.681938,57.460690 76.975655,54.811394 77.058250,50.589699 
	C77.085930,49.174999 77.718407,47.772137 78.486862,46.490726 
	C79.061279,47.111691 79.223282,47.605793 79.346123,48.474915 
	C79.355598,49.851398 79.404243,50.852856 79.467712,52.209816 
	C81.103577,53.285786 82.873291,54.762707 84.297714,54.482754 
	C85.398911,54.266327 86.677223,51.902843 86.810127,50.399590 
	C87.159874,46.443298 87.043442,42.431530 86.903389,38.449215 
	C86.623703,30.496586 83.428703,26.943203 75.515793,26.178848 
	C72.184975,25.857103 70.920578,24.458302 70.691299,21.208296 
	C70.511414,18.658297 69.594650,16.160280 69.005943,13.319708 
	C69.013023,12.363605 69.019409,11.726964 69.025795,11.090323 
z"/>
<path fill="#7A02E7" opacity="1.000000" stroke="none" 
	d="
M79.452888,51.854317 
	C79.404243,50.852856 79.355598,49.851398 79.538498,48.281631 
	C79.578392,46.461891 79.386742,45.210453 79.195084,43.959015 
	C79.195091,43.959015 78.974922,43.521175 79.001534,42.873108 
	C79.040657,40.150875 79.053169,38.076714 79.167175,35.732677 
	C78.177971,33.967838 77.087280,32.472870 75.941635,30.733135 
	C75.923645,29.659357 75.960602,28.830339 76.366913,28.033150 
	C81.313416,28.709221 83.975151,31.494896 84.438126,35.912354 
	C84.866333,39.998150 84.561119,44.155998 84.706360,48.277626 
	C84.850502,52.367908 83.021423,53.331806 79.452888,51.854317 
z"/>
<path fill="#690EC2" opacity="1.000000" stroke="none" 
	d="
M75.996582,30.977900 
	C77.087280,32.472870 78.177971,33.967838 78.905060,35.494217 
	C73.901306,31.810921 72.102280,32.198624 71.221252,37.103195 
	C71.206184,37.501324 71.191124,37.899448 71.160080,38.899372 
	C71.173462,39.703403 71.202827,39.905643 71.232201,40.107880 
	C71.217430,43.613789 71.202660,47.119701 71.061050,51.282951 
	C70.646057,52.969757 70.357903,53.999218 70.069740,55.028683 
	C69.900703,55.101273 69.731659,55.173866 69.314323,55.367893 
	C67.136879,54.538349 65.207718,53.587372 63.647491,52.277519 
	C66.562088,52.035042 68.742126,51.736198 68.721985,48.371471 
	C68.703186,45.231071 68.957092,42.083977 68.830833,38.950314 
	C68.544235,31.836847 68.846359,31.429346 75.996582,30.977900 
z"/>
<path fill="#2C2E3E" opacity="1.000000" stroke="none" 
	d="
M62.211876,19.078230 
	C59.996380,18.225716 57.780888,17.373203 55.282982,16.325481 
	C54.911545,14.434273 54.822514,12.738271 54.655312,9.553226 
	C57.313431,11.978674 58.812580,13.346597 60.749489,15.159868 
	C61.533817,16.175180 61.880379,16.745144 62.286469,17.607117 
	C62.301285,18.292160 62.256580,18.685194 62.211876,19.078230 
z"/>
<path fill="#3D1F68" opacity="1.000000" stroke="none" 
	d="
M71.528786,37.043884 
	C72.102280,32.198624 73.901306,31.810921 78.803574,35.764091 
	C79.053169,38.076714 79.040657,40.150875 78.895790,42.652054 
	C78.212837,42.177074 77.291862,41.319263 77.178047,40.365166 
	C76.764641,36.899632 74.899895,36.082214 71.528786,37.043884 
z"/>
<path fill="#2F2C41" opacity="1.000000" stroke="none" 
	d="
M24.717201,34.162354 
	C25.047890,37.032372 25.094950,40.066071 25.144566,43.556953 
	C20.771837,39.974525 20.659616,38.450878 24.717201,34.162354 
z"/>
<path fill="#451B76" opacity="1.000000" stroke="none" 
	d="
M117.139252,33.718742 
	C114.001816,31.405840 110.971550,28.812910 107.696571,25.994671 
	C114.006790,25.944336 116.027748,27.526785 117.139252,33.718742 
z"/>
<path fill="#3D2065" opacity="1.000000" stroke="none" 
	d="
M62.226944,17.315109 
	C61.880379,16.745144 61.533817,16.175180 61.044300,15.301579 
	C63.354778,13.702477 65.808212,12.407013 68.643723,11.100935 
	C69.019409,11.726964 69.013023,12.363605 68.620155,13.392912 
	C66.538391,14.880077 64.843102,15.974578 62.925636,17.160677 
	C62.703457,17.252275 62.226944,17.315107 62.226944,17.315109 
z"/>
<path fill="#690EC2" opacity="1.000000" stroke="none" 
	d="
M79.050972,44.264591 
	C79.386742,45.210453 79.578392,46.461891 79.577667,47.906609 
	C79.223282,47.605793 79.061279,47.111691 78.757996,46.253494 
	C78.713440,45.449654 78.810150,45.009911 79.050972,44.264591 
z"/>
<path fill="#3D2065" opacity="1.000000" stroke="none" 
	d="
M70.342697,54.826027 
	C70.357903,53.999218 70.646057,52.969757 71.115814,51.673649 
	C71.070160,52.479130 70.842903,53.551250 70.342697,54.826027 
z"/>
<path fill="#3D1F68" opacity="1.000000" stroke="none" 
	d="
M71.360519,40.042667 
	C71.202827,39.905643 71.173462,39.703403 71.185989,39.197319 
	C71.396683,39.124954 71.594193,39.342632 71.716331,39.596569 
	C71.751678,39.670055 71.570671,39.847607 71.360519,40.042667 
z"/>
<path fill="#2D3040" opacity="1.000000" stroke="none" 
	d="
M201.221451,41.844749 
	C200.864944,45.877632 199.675735,49.455643 195.476578,48.748589 
	C193.443985,48.406342 190.937607,45.518066 190.324448,43.315250 
	C189.310959,39.674210 189.421844,35.402050 193.719376,33.369823 
	C197.832413,31.424841 200.832031,34.748417 201.221451,41.844749 
z"/>
<path fill="#7109D2" opacity="1.000000" stroke="none" 
	d="
M45.102272,17.202976 
	C48.302502,17.659283 51.187023,17.813202 53.796650,18.740622 
	C54.875786,19.124130 56.282749,21.616236 55.920578,22.353254 
	C55.289951,23.636560 53.455872,24.402290 52.011238,25.167931 
	C51.563190,25.405392 50.741764,24.943735 50.092739,24.795742 
	C45.196629,23.679304 40.612843,24.116507 37.645710,28.645542 
	C34.480167,33.477436 34.353359,38.659904 37.243389,43.779827 
	C40.004566,48.671471 44.567364,48.977863 49.416416,48.510258 
	C50.244198,48.430439 51.192120,47.965706 51.864914,48.232544 
	C53.509697,48.884884 55.025928,49.861351 56.593903,50.707352 
	C55.441162,52.053566 54.513496,54.219826 53.097900,54.608364 
	C45.778530,56.617313 38.316254,56.798805 32.426628,51.232574 
	C26.035709,45.192574 25.838810,37.305611 28.176041,29.414925 
	C30.555073,21.383110 36.664852,17.888758 45.102272,17.202976 
z"/>
<path fill="#2C2E3E" opacity="1.000000" stroke="none" 
	d="
M61.156189,45.856613 
	C60.251499,46.467491 59.296917,47.659290 58.450935,47.586643 
	C55.145496,47.302769 51.873505,46.166706 48.590733,46.173275 
	C40.533531,46.189411 36.684402,41.896114 38.087032,33.866600 
	C38.993740,28.676014 41.329803,26.899275 46.612404,26.876024 
	C49.994061,26.861141 53.429607,25.953094 56.728916,26.358227 
	C58.199955,26.538858 59.395123,28.966150 60.677471,31.018583 
	C60.811695,36.394466 60.983940,41.125538 61.156189,45.856613 
z"/>
<path fill="#7B02E4" opacity="1.000000" stroke="none" 
	d="
M62.286469,17.607117 
	C62.226944,17.315107 62.703457,17.252275 63.256874,17.076122 
	C68.042328,15.584156 68.056206,18.729973 68.292534,21.319977 
	C68.729439,26.108088 71.016075,28.555462 75.997559,28.001324 
	C75.960602,28.830339 75.923645,29.659357 75.941635,30.733135 
	C68.846359,31.429346 68.544235,31.836847 68.830833,38.950314 
	C68.957092,42.083977 68.703186,45.231071 68.721985,48.371471 
	C68.742126,51.736198 66.562088,52.035042 63.628674,51.910637 
	C63.082962,49.270546 62.925003,46.638474 62.777431,43.234692 
	C62.725231,38.636036 62.662636,34.809093 62.600040,30.982147 
	C62.613861,28.611839 62.627678,26.241533 62.500954,23.137678 
	C62.306252,21.903532 62.252087,21.402933 62.197922,20.902334 
	C62.279465,20.492537 62.361012,20.082737 62.327217,19.375584 
	C62.256580,18.685194 62.301285,18.292160 62.286469,17.607117 
z"/>
<path fill="#3D1F68" opacity="1.000000" stroke="none" 
	d="
M62.327930,30.982872 
	C62.662636,34.809093 62.725231,38.636036 62.684589,42.857254 
	C62.192921,43.982594 61.804489,44.713665 61.286125,45.650673 
	C60.983940,41.125538 60.811695,36.394466 60.802845,31.328060 
	C61.329433,30.989685 61.692627,30.986641 62.327930,30.982872 
z"/>
<path fill="#2C2E3E" opacity="1.000000" stroke="none" 
	d="
M61.902557,20.956451 
	C62.252087,21.402933 62.306252,21.903532 62.323338,22.781874 
	C61.383923,22.914864 60.481590,22.670111 58.396416,22.104517 
	C60.235802,21.477816 60.921497,21.244190 61.902557,20.956451 
z"/>
<path fill="#3C1E68" opacity="1.000000" stroke="none" 
	d="
M101.436157,45.470367 
	C101.918594,44.781841 102.311722,44.101212 102.599800,44.143097 
	C104.753906,44.456276 106.887245,44.912296 109.027084,45.323570 
	C108.372330,46.766731 107.984009,49.203663 107.012199,49.464203 
	C104.246712,50.205624 101.231644,50.077309 101.436157,45.470367 
z"/>
<path fill="#6F0ACF" opacity="1.000000" stroke="none" 
	d="
M133.667633,34.558479 
	C133.038254,38.493568 132.227249,42.266228 132.743851,45.847378 
	C132.937103,47.187153 136.281387,47.994324 138.079605,49.206562 
	C139.399658,50.096447 140.541519,51.250614 141.762802,52.286995 
	C140.534332,53.400776 139.459320,55.199814 138.052017,55.514954 
	C130.085175,57.298981 124.817345,53.462868 124.362717,45.361866 
	C123.971359,38.388081 123.940590,31.366182 124.323433,24.397036 
	C124.415581,22.719528 126.775566,21.166599 128.092621,19.556374 
	C129.418015,20.872112 130.713898,22.219398 132.077286,23.494528 
	C133.382736,24.715475 134.586838,26.449659 136.143021,26.903276 
	C138.508728,27.592876 141.839310,27.162106 141.128036,30.715265 
	C140.863953,32.034466 137.762787,32.814613 135.919678,33.771782 
	C135.344513,34.070469 134.652222,34.143574 133.667633,34.558479 
z"/>
<path fill="#2B2E3E" opacity="1.000000" stroke="none" 
	d="
M102.818802,34.986885 
	C102.924385,34.889938 103.025551,34.870667 103.126724,34.851395 
	C103.022614,34.922455 102.918503,34.993507 102.818802,34.986885 
z"/>
<path fill="#690EC2" opacity="1.000000" stroke="none" 
	d="
M76.366913,28.033150 
	C71.016075,28.555462 68.729439,26.108088 68.292534,21.319977 
	C68.056206,18.729973 68.042328,15.584156 63.479053,16.984524 
	C64.843102,15.974578 66.538391,14.880077 68.619461,13.712374 
	C69.594650,16.160280 70.511414,18.658297 70.691299,21.208296 
	C70.920578,24.458302 72.184975,25.857103 75.515793,26.178848 
	C83.428703,26.943203 86.623703,30.496586 86.903389,38.449215 
	C87.043442,42.431530 87.159874,46.443298 86.810127,50.399590 
	C86.677223,51.902843 85.398911,54.266327 84.297714,54.482754 
	C82.873291,54.762707 81.103577,53.285786 79.467712,52.209816 
	C83.021423,53.331806 84.850502,52.367908 84.706360,48.277626 
	C84.561119,44.155998 84.866333,39.998150 84.438126,35.912354 
	C83.975151,31.494896 81.313416,28.709221 76.366913,28.033150 
z"/>
</svg>